<svg width="226" height="225" viewBox="0 0 226 225" fill="none" xmlns="http://www.w3.org/2000/svg">
<g filter="url(#filter0_d_73_3371)">
<rect x="23.5117" y="15" width="179" height="179" rx="14" fill="#FEFEFF"/>
</g>
<path d="M166.204 47.5925C151.136 38.6393 131.639 39.1364 116.842 48.3093C108.528 53.4629 102.101 60.8959 94.8134 67.2947C88.4274 72.9016 81.0014 76.9011 74.406 82.1914C50.4876 101.377 52.7698 153.126 86.4496 159.999C101.049 162.979 121.003 163.935 129.583 149.713C137.765 136.154 140.509 122.283 156.495 115.08C162.066 112.57 171.378 112.697 175.152 107.196C179.914 100.255 174.005 93.0446 170.852 86.9958C166.79 79.2005 165.938 71.515 168.797 63.1532C171.23 56.0327 172.944 52.8341 166.204 47.5925V47.5925Z" fill="url(#paint0_linear_73_3371)"/>
<path opacity="0.1" d="M145.889 113.569C136.117 113.569 127.764 119.629 124.402 128.186C124.379 128.178 124.358 128.165 124.333 128.158L111.42 124.389C112.194 122.089 112.614 119.627 112.614 117.066C112.614 111.124 110.355 105.708 106.646 101.625L120.737 92.068C120.754 92.0565 120.767 92.0419 120.783 92.0296C125.01 97.3193 131.524 100.71 138.833 100.71C151.574 100.71 161.902 90.4095 161.902 77.7029C161.902 64.9962 151.574 54.6956 138.833 54.6956C126.092 54.6956 115.764 64.9962 115.764 77.7029C115.764 82.276 117.102 86.5373 119.409 90.1191H119.408L105.155 99.7865C105.083 99.8353 105.019 99.8916 104.961 99.9524C100.876 96.2891 95.4715 94.0589 89.5447 94.0589C76.8039 94.0589 66.4756 104.36 66.4756 117.066C66.4756 129.773 76.8039 140.074 89.5447 140.074C98.884 140.074 106.927 134.538 110.556 126.578C110.598 126.596 110.638 126.616 110.683 126.63L123.657 130.417C123.112 132.377 122.819 134.442 122.819 136.576C122.819 149.283 133.148 159.583 145.889 159.583C158.629 159.583 168.958 149.283 168.958 136.576C168.958 123.869 158.63 113.569 145.889 113.569V113.569Z" fill="#3A85F4"/>
<path d="M138.833 95.0537C151.574 95.0537 161.902 84.753 161.902 72.0464C161.902 59.3398 151.574 49.0391 138.833 49.0391C126.093 49.0391 115.764 59.3398 115.764 72.0464C115.764 84.753 126.093 95.0537 138.833 95.0537Z" fill="#D4EBFF"/>
<path d="M89.5447 134.417C102.285 134.417 112.614 124.116 112.614 111.41C112.614 98.7031 102.285 88.4023 89.5447 88.4023C76.804 88.4023 66.4756 98.7031 66.4756 111.41C66.4756 124.116 76.804 134.417 89.5447 134.417Z" fill="#D4EBFF"/>
<path d="M145.889 153.927C158.63 153.927 168.959 143.626 168.959 130.919C168.959 118.213 158.63 107.912 145.889 107.912C133.149 107.912 122.82 118.213 122.82 130.919C122.82 143.626 133.149 153.927 145.889 153.927Z" fill="#D4EBFF"/>
<path d="M93.8703 74.5207C93.2176 74.5207 92.6887 73.9929 92.6887 73.3422C92.6887 72.5623 92.0525 71.928 91.2705 71.928C90.6178 71.928 90.0889 71.4003 90.0889 70.7496C90.0889 70.0988 90.6178 69.5711 91.2705 69.5711C92.0525 69.5711 92.6887 68.9369 92.6887 68.157C92.6887 67.5062 93.2176 66.9785 93.8703 66.9785C94.523 66.9785 95.0519 67.5062 95.0519 68.157C95.0519 68.9369 95.6879 69.5711 96.4696 69.5711C97.1224 69.5711 97.6513 70.0988 97.6513 70.7496C97.6513 71.4003 97.1224 71.928 96.4696 71.928C95.6879 71.928 95.0519 72.5623 95.0519 73.3422C95.0519 73.9929 94.523 74.5207 93.8703 74.5207Z" fill="#81C2FF"/>
<path d="M164.454 98.8756C163.801 98.8756 163.272 98.3479 163.272 97.6972C163.272 96.9173 162.636 96.283 161.854 96.283C161.201 96.283 160.672 95.7553 160.672 95.1046C160.672 94.4538 161.201 93.9261 161.854 93.9261C162.636 93.9261 163.272 93.2919 163.272 92.512C163.272 91.8612 163.801 91.3335 164.454 91.3335C165.106 91.3335 165.635 91.8612 165.635 92.512C165.635 93.2919 166.271 93.9261 167.053 93.9261C167.706 93.9261 168.235 94.4538 168.235 95.1046C168.235 95.7553 167.706 96.283 167.053 96.283C166.271 96.283 165.635 96.9173 165.635 97.6972C165.635 98.3479 165.106 98.8756 164.454 98.8756Z" fill="#D4EBFF"/>
<path d="M101.649 147.36C100.997 147.36 100.468 146.832 100.468 146.181C100.468 145.401 99.8318 144.767 99.0498 144.767C98.3971 144.767 97.8682 144.239 97.8682 143.589C97.8682 142.938 98.3971 142.41 99.0498 142.41C99.8318 142.41 100.468 141.776 100.468 140.996C100.468 140.345 100.997 139.818 101.649 139.818C102.302 139.818 102.831 140.345 102.831 140.996C102.831 141.776 103.467 142.41 104.249 142.41C104.902 142.41 105.431 142.938 105.431 143.589C105.431 144.239 104.902 144.767 104.249 144.767C103.467 144.767 102.831 145.401 102.831 146.181C102.831 146.832 102.302 147.36 101.649 147.36Z" fill="#81C2FF"/>
<path d="M102.611 81.3559C102.309 81.3559 102.006 81.2409 101.776 81.0108L99.1762 78.4182C98.7147 77.9579 98.7147 77.2117 99.1762 76.7516L101.776 74.159C102.237 73.6989 102.986 73.6989 103.447 74.159L106.046 76.7516C106.508 77.2119 106.508 77.9581 106.046 78.4182L103.447 81.0108C103.216 81.2406 102.914 81.3559 102.611 81.3559ZM101.683 77.5848L102.611 78.5108L103.54 77.5848L102.611 76.6588L101.683 77.5848Z" fill="#D4EBFF"/>
<path d="M115.213 150.488C114.911 150.488 114.608 150.373 114.378 150.143L111.778 147.55C111.317 147.09 111.317 146.344 111.778 145.884L114.378 143.291C114.839 142.831 115.588 142.831 116.049 143.291L118.648 145.884C119.11 146.344 119.11 147.09 118.648 147.55L116.049 150.143C115.818 150.373 115.516 150.488 115.213 150.488ZM114.285 146.717L115.214 147.643L116.142 146.717L115.214 145.791L114.285 146.717Z" fill="#9ED0FF"/>
<path d="M52.8651 126.455C52.5629 126.455 52.2601 126.34 52.0297 126.11L49.4301 123.518C48.9686 123.058 48.9686 122.311 49.4301 121.851L52.0297 119.259C52.4908 118.799 53.2395 118.799 53.7005 119.259L56.3001 121.851C56.7617 122.312 56.7617 123.058 56.3001 123.518L53.7005 126.11C53.4701 126.34 53.1676 126.455 52.8651 126.455ZM51.9368 122.684L52.8654 123.61L53.7939 122.684L52.8654 121.758L51.9368 122.684Z" fill="#81C2FF"/>
<path d="M105.945 94.7788L119.74 85.3931" stroke="#5A5A5A" stroke-width="3"/>
<path fill-rule="evenodd" clip-rule="evenodd" d="M89.5434 135.596C99.3973 135.596 107.897 129.704 111.687 121.267C111.852 120.931 112.256 120.02 112.55 119.063C113.356 116.657 113.795 114.084 113.795 111.41C113.795 105.231 111.458 99.5867 107.621 95.307C107.429 95.09 106.416 94.0793 105.934 93.6011C101.614 89.6438 95.8571 87.2242 89.5432 87.2242C76.1712 87.2242 65.2925 98.0738 65.2925 111.41C65.2927 124.746 76.1715 135.596 89.5434 135.596ZM118.438 85.1202C118.835 85.6823 119.667 86.8526 119.815 87.0368C124.26 92.6345 131.133 96.2321 138.832 96.2321C144.604 96.2321 150.196 94.1752 154.578 90.4402C158.911 86.7472 161.812 81.6419 162.748 76.0649C162.855 75.4229 162.421 74.8155 161.777 74.708C161.135 74.6017 160.525 75.034 160.417 75.676C159.573 80.7078 156.954 85.3146 153.043 88.6487C149.088 92.0191 144.042 93.8754 138.832 93.8754C126.763 93.8754 116.945 84.0832 116.945 72.0466C116.945 60.0101 126.763 50.2178 138.832 50.2178C149.434 50.2178 158.493 57.7578 160.371 68.1461C160.487 68.7867 161.101 69.2117 161.744 69.0967C162.386 68.9812 162.813 68.3684 162.697 67.7278C160.615 56.2161 150.579 47.8608 138.832 47.8608C125.46 47.8608 114.581 58.7104 114.581 72.0466C114.581 76.8594 115.998 81.3482 118.438 85.1202ZM121.637 130.92C121.637 128.702 121.937 126.523 122.521 124.429C122.592 124.014 123.048 122.765 123.267 122.191C123.966 120.394 124.88 118.674 126.008 117.067C126.382 116.534 127.119 116.404 127.654 116.777C128.188 117.15 128.318 117.885 127.944 118.419C125.364 122.095 124 126.418 124 130.92C124 142.956 133.819 152.748 145.888 152.748C157.956 152.748 167.775 142.956 167.775 130.92C167.775 118.883 157.956 109.091 145.888 109.091C141.337 109.091 136.973 110.471 133.269 113.082C132.737 113.457 131.999 113.331 131.623 112.8C131.246 112.268 131.372 111.533 131.905 111.157C136.01 108.264 140.845 106.734 145.888 106.734C159.26 106.734 170.138 117.584 170.138 130.92C170.138 144.256 159.26 155.105 145.888 155.105C132.516 155.105 121.637 144.256 121.637 130.92ZM89.5434 89.5811C101.612 89.5811 111.431 99.3734 111.431 111.41C111.431 123.447 101.612 133.239 89.5434 133.239C77.4748 133.239 67.656 123.447 67.656 111.41C67.656 99.3737 77.4748 89.5811 89.5434 89.5811Z" fill="#3A85F4"/>
<ellipse cx="138.823" cy="71.6497" rx="17.8136" ry="17.7659" fill="white"/>
<ellipse cx="89.0793" cy="111.204" rx="17.8136" ry="17.7659" fill="white"/>
<ellipse cx="145.546" cy="130.646" rx="17.8136" ry="17.7659" fill="white"/>
<ellipse cx="145.928" cy="130.451" rx="6.19061" ry="6.17403" fill="#3A85F4"/>
<path fill-rule="evenodd" clip-rule="evenodd" d="M135.856 145.556C136.122 142.672 137.417 139.145 141.213 137.748C142.626 138.799 146.471 140.27 150.554 137.748C152.315 138.33 155.377 140.533 155.962 145.061C153.053 147.155 149.485 148.395 145.628 148.412H145.466C141.923 148.396 138.624 147.349 135.856 145.556Z" fill="#3A85F4"/>
<ellipse cx="89.4059" cy="111.009" rx="6.19061" ry="6.17403" fill="#3A85F4"/>
<path fill-rule="evenodd" clip-rule="evenodd" d="M79.3345 126.114C79.6009 123.231 80.8957 119.703 84.6917 118.306C86.1041 119.357 89.9496 120.828 94.0326 118.306C95.7937 118.888 98.8549 121.091 99.4407 125.618C96.5114 127.727 92.9135 128.97 89.0245 128.97C85.4511 128.97 82.1235 127.92 79.3345 126.114Z" fill="#3A85F4"/>
<ellipse cx="139.152" cy="71.4548" rx="6.19061" ry="6.17403" fill="#3A85F4"/>
<path fill-rule="evenodd" clip-rule="evenodd" d="M129.077 86.5587C129.343 83.6755 130.638 80.149 134.434 78.7515C135.846 79.8024 139.692 81.2738 143.775 78.7515C145.536 79.3337 148.598 81.5372 149.183 86.0649C146.265 88.1651 142.685 89.4061 138.814 89.4157H138.723C135.166 89.4069 131.854 88.3583 129.077 86.5587Z" fill="#3A85F4"/>
<path d="M112.002 120.254L122.769 123.606" stroke="#5A5A5A" stroke-width="3"/>
<defs>
<filter id="filter0_d_73_3371" x="0.511719" y="0" width="225" height="225" filterUnits="userSpaceOnUse" color-interpolation-filters="sRGB">
<feFlood flood-opacity="0" result="BackgroundImageFix"/>
<feColorMatrix in="SourceAlpha" type="matrix" values="0 0 0 0 0 0 0 0 0 0 0 0 0 0 0 0 0 0 127 0" result="hardAlpha"/>
<feOffset dy="8"/>
<feGaussianBlur stdDeviation="11.5"/>
<feColorMatrix type="matrix" values="0 0 0 0 0.170833 0 0 0 0 0.5025 0 0 0 0 1 0 0 0 0.2 0"/>
<feBlend mode="normal" in2="BackgroundImageFix" result="effect1_dropShadow_73_3371"/>
<feBlend mode="normal" in="SourceGraphic" in2="effect1_dropShadow_73_3371" result="shape"/>
</filter>
<linearGradient id="paint0_linear_73_3371" x1="58.4929" y1="101.483" x2="176.939" y2="101.483" gradientUnits="userSpaceOnUse">
<stop stop-color="#6EBDFE" stop-opacity="0"/>
<stop offset="1" stop-color="#6EBDFE"/>
</linearGradient>
</defs>
</svg>
