<svg width="226" height="225" viewBox="0 0 226 225" fill="none" xmlns="http://www.w3.org/2000/svg">
<g filter="url(#filter0_d_73_3420)">
<rect x="23.0215" y="15" width="179" height="179" rx="14" fill="#FEFEFF"/>
</g>
<path d="M94.7358 43.1576C70.6602 43.2848 58.5732 84.528 54.0621 105.728C49.5511 126.928 54.2648 170.419 89.2546 164.65C94.9104 163.718 96.2306 163.526 100.893 161.195C109.191 157.046 119.012 154.127 127.887 153.246C131.526 152.884 136.128 151.687 138.563 151.251C158.092 147.753 178.022 128.907 171.989 109.16C167.458 94.3309 154.182 88.3612 140.887 89.182C133.585 89.6326 125.815 85.3664 124.257 80.6533C119.181 65.3021 113.344 43.0594 94.7358 43.1576V43.1576Z" fill="url(#paint0_linear_73_3420)"/>
<path opacity="0.1" d="M158.596 62.1782C160.664 62.1782 162.341 63.8481 162.341 65.908V127.119C162.341 128.026 162.123 128.921 161.705 129.727L159.659 133.68C159.214 134.541 157.978 134.541 157.533 133.68L155.487 129.727C155.07 128.921 154.852 128.026 154.852 127.119V65.908C154.852 63.8481 156.528 62.1782 158.596 62.1782V62.1782Z" fill="#3A85F4"/>
<path opacity="0.1" d="M144.6 158.543H78.8104C76.1676 158.543 74.0254 156.41 74.0254 153.777V66.7061C74.0254 64.0738 76.1676 61.9399 78.8104 61.9399H144.6C147.243 61.9399 149.385 64.0738 149.385 66.7061V153.777C149.385 156.409 147.242 158.543 144.6 158.543Z" fill="#3A85F4"/>
<path d="M144.6 152.11H78.8104C76.1676 152.11 74.0254 149.976 74.0254 147.344V60.2728C74.0254 57.6404 76.1676 55.5066 78.8104 55.5066H144.6C147.243 55.5066 149.385 57.6404 149.385 60.2728V147.344C149.385 149.976 147.242 152.11 144.6 152.11Z" fill="#D4EBFF"/>
<path fill-rule="evenodd" clip-rule="evenodd" d="M144.599 153.3H78.8093C75.5113 153.3 72.8281 150.628 72.8281 147.343V60.2717C72.8281 56.9866 75.5113 54.314 78.8093 54.314H109.262H144.599C147.897 54.314 150.58 56.9866 150.58 60.2717V147.342C150.58 150.628 147.897 153.3 144.599 153.3ZM78.8093 56.6971H109.262H144.599C146.578 56.6971 148.188 58.3007 148.188 60.2717V147.342C148.188 149.314 146.578 150.917 144.599 150.917H78.8093C76.8305 150.917 75.2206 149.314 75.2206 147.342V60.2717C75.2206 58.3007 76.8305 56.6971 78.8093 56.6971Z" fill="#3A85F4"/>
<path d="M143.641 62.4174V145.197C143.641 145.857 143.105 146.388 142.445 146.388H128.223C128.681 146.388 127.612 146.388 128.223 146.388H95.2271C95.685 146.388 94.7692 146.388 95.2271 146.388H80.9628C80.3025 146.388 79.7666 145.857 79.7666 145.197V62.4174C79.7666 61.7573 80.3025 61.2258 80.9628 61.2258H95.2271L128.181 61.2259L142.445 61.2258C143.105 61.2258 143.641 61.7573 143.641 62.4174Z" fill="white"/>
<path d="M68.6414 88.4245H67.9237V87.7096C67.9237 87.0514 67.388 86.5181 66.7274 86.5181C66.0669 86.5181 65.5312 87.0514 65.5312 87.7096V88.4245H64.8134C64.1529 88.4245 63.6172 88.9579 63.6172 89.6161C63.6172 90.2743 64.1529 90.8077 64.8134 90.8077H65.5312V91.5226C65.5312 92.1808 66.0669 92.7141 66.7274 92.7141C67.388 92.7141 67.9237 92.1808 67.9237 91.5226V90.8077H68.6414C69.302 90.8077 69.8376 90.2743 69.8376 89.6161C69.8376 88.9579 69.302 88.4245 68.6414 88.4245Z" fill="#81C2FF"/>
<path d="M159.556 143.547H158.839V142.832C158.839 142.174 158.303 141.641 157.642 141.641C156.982 141.641 156.446 142.174 156.446 142.832V143.547H155.728C155.068 143.547 154.532 144.08 154.532 144.739C154.532 145.397 155.068 145.93 155.728 145.93H156.446V146.645C156.446 147.303 156.982 147.837 157.642 147.837C158.303 147.837 158.839 147.303 158.839 146.645V145.93H159.556C160.217 145.93 160.753 145.397 160.753 144.739C160.753 144.08 160.217 143.547 159.556 143.547Z" fill="#D4EBFF"/>
<path d="M64.0945 99.0771H63.3768V98.3622C63.3768 97.704 62.8411 97.1707 62.1805 97.1707C61.52 97.1707 60.9843 97.704 60.9843 98.3622V99.0771H60.2666C59.606 99.0771 59.0703 99.6105 59.0703 100.269C59.0703 100.927 59.606 101.46 60.2666 101.46H60.9843V102.175C60.9843 102.833 61.52 103.367 62.1805 103.367C62.8411 103.367 63.3768 102.833 63.3768 102.175V101.46H64.0945C64.7551 101.46 65.2908 100.927 65.2908 100.269C65.2908 99.6105 64.7551 99.0771 64.0945 99.0771Z" fill="#D4EBFF"/>
<path d="M66.0105 60.9883C65.7042 60.9883 65.3982 60.872 65.1645 60.6391L64.0965 59.5753L63.0285 60.6391C62.5612 61.1046 61.804 61.1046 61.3368 60.6391C60.8695 60.174 60.8695 59.4195 61.3368 58.9543L63.2508 57.0478C63.718 56.5824 64.4752 56.5824 64.9425 57.0478L66.8565 58.9543C67.3237 59.4195 67.3237 60.174 66.8565 60.6391C66.6227 60.872 66.3167 60.9883 66.0105 60.9883Z" fill="#D4EBFF"/>
<path d="M166.171 139.279C165.864 139.279 165.558 139.163 165.325 138.93L164.257 137.866L163.189 138.93C162.721 139.396 161.964 139.396 161.497 138.93C161.03 138.465 161.03 137.71 161.497 137.245L163.411 135.339C163.878 134.873 164.635 134.873 165.103 135.339L167.017 137.245C167.484 137.71 167.484 138.465 167.017 138.93C166.783 139.163 166.477 139.279 166.171 139.279Z" fill="#D4EBFF"/>
<path d="M138.85 97.6169H84.6552C83.9944 97.6169 83.459 97.0833 83.459 96.4252C83.459 95.7671 83.9944 95.2334 84.6552 95.2334H138.85C139.511 95.2334 140.046 95.7671 140.046 96.4252C140.046 97.0833 139.511 97.6169 138.85 97.6169Z" fill="#5A5A5A"/>
<path d="M138.85 73.5368H84.6552C83.9944 73.5368 83.459 73.0032 83.459 72.3451C83.459 71.687 83.9944 71.1533 84.6552 71.1533H138.85C139.511 71.1533 140.046 71.687 140.046 72.3451C140.046 73.0032 139.511 73.5368 138.85 73.5368Z" fill="#5A5A5A"/>
<path d="M88.6076 90.459H84.6552C83.9944 90.459 83.459 89.9253 83.459 89.2672C83.459 88.6091 83.9944 88.0754 84.6552 88.0754H88.6076C89.2684 88.0754 89.8039 88.6091 89.8039 89.2672C89.8039 89.9253 89.2684 90.459 88.6076 90.459Z" fill="#5A5A5A"/>
<path d="M113.974 99.8813H84.7066C84.0819 99.8813 83.524 100.336 83.4646 100.956C83.3964 101.667 83.9558 102.265 84.6551 102.265H113.974C114.635 102.265 115.171 101.731 115.171 101.073C115.171 100.415 114.635 99.8813 113.974 99.8813Z" fill="#5A5A5A"/>
<path d="M131.622 99.8813H120.076C119.416 99.8813 118.88 100.415 118.88 101.073C118.88 101.731 119.416 102.265 120.076 102.265H131.673C132.373 102.265 132.932 101.667 132.864 100.956C132.805 100.336 132.247 99.8813 131.622 99.8813V99.8813Z" fill="#5A5A5A"/>
<path d="M113.974 75.801H84.7066C84.0819 75.801 83.524 76.256 83.4646 76.8755C83.3964 77.5863 83.9558 78.1845 84.6551 78.1845H113.974C114.635 78.1845 115.171 77.6509 115.171 76.9928C115.171 76.3345 114.635 75.801 113.974 75.801Z" fill="#5A5A5A"/>
<path d="M131.622 75.801H120.076C119.416 75.801 118.88 76.3347 118.88 76.9928C118.88 77.6509 119.416 78.1845 120.076 78.1845H131.673C132.373 78.1845 132.932 77.5863 132.864 76.8755C132.805 76.256 132.247 75.801 131.622 75.801V75.801Z" fill="#5A5A5A"/>
<path d="M138.85 106.913H84.6552C83.9944 106.913 83.459 106.379 83.459 105.721C83.459 105.063 83.9944 104.529 84.6552 104.529H138.85C139.511 104.529 140.046 105.063 140.046 105.721C140.046 106.379 139.511 106.913 138.85 106.913Z" fill="#5A5A5A"/>
<path d="M138.85 82.8323H84.6552C83.9944 82.8323 83.459 82.2986 83.459 81.6405C83.459 80.9824 83.9944 80.4487 84.6552 80.4487H138.85C139.511 80.4487 140.046 80.9824 140.046 81.6405C140.046 82.2986 139.511 82.8323 138.85 82.8323Z" fill="#5A5A5A"/>
<path d="M138.85 122.361H84.6552C83.9944 122.361 83.459 121.827 83.459 121.169C83.459 120.511 83.9944 119.978 84.6552 119.978H138.85C139.511 119.978 140.046 120.511 140.046 121.169C140.046 121.827 139.511 122.361 138.85 122.361Z" fill="#5A5A5A"/>
<path d="M88.6076 115.203H84.6552C83.9944 115.203 83.459 114.669 83.459 114.011C83.459 113.353 83.9944 112.82 84.6552 112.82H88.6076C89.2684 112.82 89.8039 113.353 89.8039 114.011C89.8039 114.669 89.2684 115.203 88.6076 115.203Z" fill="#5A5A5A"/>
<path d="M113.974 124.625H84.7066C84.0819 124.625 83.524 125.08 83.4646 125.7C83.3964 126.411 83.9558 127.009 84.6551 127.009H113.974C114.635 127.009 115.171 126.475 115.171 125.817C115.171 125.159 114.635 124.625 113.974 124.625Z" fill="#5A5A5A"/>
<path d="M131.622 124.625H120.076C119.416 124.625 118.88 125.159 118.88 125.817C118.88 126.475 119.416 127.009 120.076 127.009H131.673C132.373 127.009 132.932 126.411 132.864 125.7C132.805 125.08 132.247 124.625 131.622 124.625V124.625Z" fill="#5A5A5A"/>
<path d="M138.85 131.656H84.6552C83.9944 131.656 83.459 131.123 83.459 130.465C83.459 129.807 83.9944 129.273 84.6552 129.273H138.85C139.511 129.273 140.046 129.807 140.046 130.465C140.046 131.123 139.511 131.656 138.85 131.656Z" fill="#5A5A5A"/>
<path d="M158.597 55.7439C160.665 55.7439 162.341 57.4137 162.341 59.4737V120.685C162.341 121.592 162.124 122.486 161.706 123.293L159.66 127.246C159.215 128.107 157.979 128.107 157.534 127.246L155.488 123.293C155.07 122.486 154.853 121.592 154.853 120.685V59.4737C154.853 57.4137 156.529 55.7439 158.597 55.7439V55.7439Z" fill="white"/>
<path d="M154.853 112.279H162.341V115.643H154.853V112.279Z" fill="#D4EBFF"/>
<path d="M162.341 64.208V59.4737C162.341 57.4137 160.665 55.7439 158.597 55.7439C156.529 55.7439 154.853 57.4137 154.853 59.4737V64.208H162.341Z" fill="#D4EBFF"/>
<path fill-rule="evenodd" clip-rule="evenodd" d="M158.598 129.083C157.698 129.083 156.883 128.589 156.471 127.792L154.425 123.839C153.923 122.868 153.657 121.777 153.657 120.685V89.4612L153.657 59.4738C153.657 56.7602 155.874 54.5527 158.598 54.5527C161.323 54.5527 163.539 56.7604 163.539 59.4738V120.685C163.539 121.777 163.273 122.868 162.771 123.839L160.725 127.792C160.312 128.588 159.498 129.083 158.598 129.083ZM156.05 120.685V89.4612L156.05 59.4738C156.05 58.0742 157.193 56.9358 158.598 56.9358C160.003 56.9358 161.146 58.0742 161.146 59.4738V120.685C161.146 121.399 160.972 122.112 160.644 122.747L158.598 126.7L156.552 122.747C156.223 122.112 156.05 121.399 156.05 120.685Z" fill="#3A85F4"/>
<path d="M111.706 140.702C111.388 140.702 111.084 140.576 110.86 140.352L108.526 138.029C108.059 137.563 108.059 136.809 108.526 136.344C108.993 135.878 109.751 135.878 110.218 136.344L111.705 137.825L113.192 136.344C113.659 135.879 114.417 135.879 114.884 136.344C115.351 136.809 115.351 137.564 114.884 138.029L112.551 140.352C112.327 140.576 112.023 140.702 111.706 140.702Z" fill="#3A85F4"/>
<defs>
<filter id="filter0_d_73_3420" x="0.0214844" y="0" width="225" height="225" filterUnits="userSpaceOnUse" color-interpolation-filters="sRGB">
<feFlood flood-opacity="0" result="BackgroundImageFix"/>
<feColorMatrix in="SourceAlpha" type="matrix" values="0 0 0 0 0 0 0 0 0 0 0 0 0 0 0 0 0 0 127 0" result="hardAlpha"/>
<feOffset dy="8"/>
<feGaussianBlur stdDeviation="11.5"/>
<feColorMatrix type="matrix" values="0 0 0 0 0.170833 0 0 0 0 0.5025 0 0 0 0 1 0 0 0 0.2 0"/>
<feBlend mode="normal" in2="BackgroundImageFix" result="effect1_dropShadow_73_3420"/>
<feBlend mode="normal" in="SourceGraphic" in2="effect1_dropShadow_73_3420" result="shape"/>
</filter>
<linearGradient id="paint0_linear_73_3420" x1="52.6309" y1="104.165" x2="173.086" y2="104.165" gradientUnits="userSpaceOnUse">
<stop stop-color="#70BEFE" stop-opacity="0"/>
<stop offset="1" stop-color="#76C1FE"/>
</linearGradient>
</defs>
</svg>
