<svg width="226" height="225" viewBox="0 0 226 225" fill="none" xmlns="http://www.w3.org/2000/svg">
<g filter="url(#filter0_d_73_3474)">
<rect x="23.5332" y="15" width="179" height="179" rx="14" fill="#FEFEFF"/>
</g>
<path d="M166.848 80.9691C161.963 68.6684 146.914 61.2918 134.168 66.1734C119.618 71.7453 124.442 94.6446 111.227 99.2751C104.089 101.776 93.5355 92.4328 86.3232 90.9999C73.0328 88.3598 61.0013 97.6391 58.0386 110.489C55.0161 123.599 59.8639 141.109 74.4202 144.667C91.7594 148.906 100.791 133.482 115.337 129.053C130.264 124.509 146.861 135.242 159.218 122.183C168.348 112.534 171.686 93.1494 166.848 80.9691V80.9691Z" fill="url(#paint0_linear_73_3474)"/>
<path opacity="0.11" d="M130.332 61.5171H85.3175C82.7831 61.5171 80.7286 63.5501 80.7286 66.0579V80.9131C77.1378 81.9282 74.5088 85.1907 74.5088 89.0613C74.5088 92.932 77.138 96.1947 80.7286 97.2096V152.981C80.7286 155.489 82.7831 157.522 85.3175 157.522H130.332C132.866 157.522 134.921 155.489 134.921 152.981V66.0579C134.921 63.5501 132.866 61.5171 130.332 61.5171Z" fill="#3A85F4"/>
<path d="M140.165 61.5178V148.441C140.165 150.949 138.11 152.982 135.576 152.982H90.5615C88.0271 152.982 85.9727 150.949 85.9727 148.441V61.5178C85.9727 59.01 88.0271 56.9771 90.5615 56.9771H135.576C138.11 56.9771 140.165 59.01 140.165 61.5178Z" fill="white"/>
<path d="M140.165 68.6535V61.5178C140.165 59.01 138.11 56.9771 135.576 56.9771H90.5615C88.0271 56.9771 85.9727 59.01 85.9727 61.5178V68.6533L140.165 68.6535Z" fill="#D4EBFF"/>
<path d="M93.6385 64.2814C94.3131 64.2814 94.86 63.7403 94.86 63.0727C94.86 62.4052 94.3131 61.864 93.6385 61.864C92.9639 61.864 92.417 62.4052 92.417 63.0727C92.417 63.7403 92.9639 64.2814 93.6385 64.2814Z" fill="white"/>
<path d="M97.992 64.2814C98.6666 64.2814 99.2135 63.7403 99.2135 63.0727C99.2135 62.4052 98.6666 61.864 97.992 61.864C97.3174 61.864 96.7705 62.4052 96.7705 63.0727C96.7705 63.7403 97.3174 64.2814 97.992 64.2814Z" fill="white"/>
<path d="M102.339 61.864C103.013 61.864 103.56 62.4052 103.56 63.0727C103.56 63.7402 103.013 64.2814 102.339 64.2814C101.664 64.2814 101.117 63.7402 101.117 63.0727C101.117 62.4052 101.664 61.864 102.339 61.864V61.864Z" fill="white"/>
<path d="M85.6045 94.232C90.3405 94.232 94.1798 90.433 94.1798 85.7466C94.1798 81.0603 90.3405 77.2612 85.6045 77.2612C80.8686 77.2612 77.0293 81.0603 77.0293 85.7466C77.0293 90.433 80.8686 94.232 85.6045 94.232Z" fill="#D4EBFF"/>
<path d="M111.918 110.875V130.954C111.918 131.863 111.418 132.6 110.801 132.6H105.216C104.599 132.6 104.099 131.863 104.099 130.954V110.875C104.099 109.966 104.599 109.229 105.216 109.229H110.801C111.418 109.229 111.918 109.966 111.918 110.875Z" fill="#D4EBFF"/>
<path d="M100.491 114.217V131.207C100.491 131.976 99.9912 132.6 99.3744 132.6H93.789C93.1721 132.6 92.6719 131.976 92.6719 131.207V114.217C92.6719 113.448 93.1721 112.824 93.789 112.824H99.3744C99.9912 112.824 100.491 113.448 100.491 114.217Z" fill="#D4EBFF"/>
<path d="M122.745 104.316V131.519C122.745 132.447 122.245 133.199 121.628 133.199H116.043C115.426 133.199 114.926 132.447 114.926 131.519V104.316C114.926 103.389 115.426 102.637 116.043 102.637H121.628C122.245 102.637 122.745 103.389 122.745 104.316Z" fill="#D4EBFF"/>
<path d="M133.573 98.6467V131.197C133.573 131.971 133.073 132.6 132.455 132.6H126.87C126.253 132.6 125.753 131.971 125.753 131.197V98.6467C125.753 97.8719 126.253 97.2437 126.87 97.2437H132.455C133.073 97.2437 133.573 97.8719 133.573 98.6467Z" fill="#D4EBFF"/>
<path d="M105.055 76.2626H121.116C121.641 76.2626 122.124 75.9147 122.227 75.4053C122.368 74.7103 121.834 74.1003 121.157 74.1003H105.014C104.337 74.1003 103.804 74.7103 103.945 75.4053C104.048 75.9147 104.53 76.2626 105.055 76.2626V76.2626Z" fill="#5A5A5A"/>
<path d="M114.108 83.941H124.566C124.908 83.941 125.222 83.6244 125.289 83.1607C125.381 82.5281 125.034 81.9729 124.593 81.9729H114.082C113.64 81.9729 113.293 82.5281 113.385 83.1607C113.452 83.6244 113.766 83.941 114.108 83.941V83.941Z" fill="#5A5A5A"/>
<path d="M99.5276 80.0048H114.778C115.277 80.0048 115.735 79.6881 115.833 79.2244C115.967 78.5918 115.46 78.0366 114.817 78.0366H99.4886C98.8454 78.0366 98.3391 78.5918 98.4727 79.2244C98.5706 79.6881 99.029 80.0048 99.5276 80.0048V80.0048Z" fill="#5A5A5A"/>
<path d="M118.46 80.0048H127.174C127.459 80.0048 127.721 79.6881 127.777 79.2244C127.854 78.5918 127.564 78.0366 127.197 78.0366H118.438C118.07 78.0366 117.781 78.5918 117.857 79.2244C117.913 79.6881 118.175 80.0048 118.46 80.0048V80.0048Z" fill="#5A5A5A"/>
<path d="M102.052 83.941H110.766C111.051 83.941 111.313 83.6244 111.369 83.1607C111.446 82.5281 111.156 81.9729 110.789 81.9729H102.029C101.662 81.9729 101.372 82.5281 101.449 83.1607C101.505 83.6244 101.767 83.941 102.052 83.941V83.941Z" fill="#5A5A5A"/>
<path d="M135.787 154.062H123.683C123.624 154.062 123.565 154.04 123.522 154C122.522 153.057 123.182 151.9 124.115 151.9H134.987C137.241 151.9 139.069 150.091 139.069 147.86V92.3238C139.069 92.2652 139.091 92.2068 139.132 92.1644C140.085 91.1752 141.254 91.8284 141.254 92.7514V148.651C141.255 151.64 138.807 154.062 135.787 154.062Z" fill="#3A85F4"/>
<path d="M113.121 146.829C112.831 146.829 112.553 146.715 112.348 146.512L111.074 145.249C110.648 144.827 110.649 144.142 111.076 143.72C111.503 143.299 112.194 143.299 112.621 143.722L113.121 144.218L113.622 143.722C114.049 143.299 114.74 143.298 115.167 143.72C115.594 144.142 115.595 144.827 115.169 145.249L113.895 146.512C113.69 146.715 113.412 146.829 113.121 146.829Z" fill="#3A85F4"/>
<path d="M135.574 55.895H90.5598C87.4222 55.895 84.8784 58.4121 84.8784 61.5169V76.1107C79.8414 76.4344 75.8428 80.5898 75.8428 85.6545C75.8428 90.7192 79.8414 94.8749 84.8784 95.1983V148.733C84.8784 151.676 87.2895 154.062 90.2638 154.062H118.329C118.388 154.062 118.447 154.04 118.49 154C119.49 153.057 118.83 151.9 117.896 151.9H90.5598C88.6288 151.9 87.0636 150.351 87.0636 148.44V95.1278C91.6559 94.3907 95.1738 90.4409 95.1738 85.6915C95.1738 80.9421 91.6559 76.9925 87.0636 76.2554V69.7335H139.07V86.6213C139.07 87.1413 139.422 87.6194 139.938 87.721C140.64 87.8594 141.256 87.3333 141.256 86.6656V61.4983C141.255 58.4087 138.707 55.895 135.574 55.895V55.895ZM93.0876 85.7466C93.0876 89.8294 89.731 93.1509 85.605 93.1509C81.479 93.1509 78.1223 89.8294 78.1223 85.7466C78.1223 81.6638 81.479 78.3424 85.605 78.3424C89.731 78.3424 93.0876 81.6638 93.0876 85.7466ZM139.07 67.5713H87.0636V61.5169C87.0636 59.6061 88.6288 58.0573 90.5598 58.0573H135.574C137.505 58.0573 139.07 59.6061 139.07 61.5169L139.07 67.5713Z" fill="#3A85F4"/>
<path d="M89.4702 105.505H106.529C107.552 105.505 114.505 99.7768 115.228 99.1491L118.621 96.2079C118.863 95.9989 119.184 95.8838 119.525 95.8838H129.341C130.365 95.8838 131.347 95.5311 132.071 94.9036L136.226 91.3026C136.467 91.0935 136.794 90.976 137.135 90.976L142.653 90.976C143.271 90.976 143.84 90.617 143.961 90.0914C144.127 89.3744 143.499 88.7451 142.701 88.7451L137.113 88.7451C136.089 88.7451 135.107 89.0976 134.383 89.7251L130.229 93.3261C129.988 93.5352 129.661 93.6527 129.319 93.6527H119.536C118.513 93.6527 117.531 94.0052 116.807 94.6328L113.425 97.5645C113.184 97.7738 106.866 103.275 106.525 103.275H89.4216C88.624 103.275 87.9955 103.904 88.1615 104.621C88.2833 105.146 88.8518 105.505 89.4702 105.505Z" fill="#3A85F4"/>
<path d="M149.572 72.3283H148.903V71.6664C148.903 71.1468 148.551 70.6692 148.037 70.5669C147.334 70.4275 146.718 70.9555 146.718 71.6256V72.3283H146.049C145.524 72.3283 145.041 72.6762 144.938 73.1857C144.797 73.8806 145.33 74.4906 146.008 74.4906H146.718V75.1524C146.718 75.672 147.069 76.1497 147.584 76.252C148.287 76.3914 148.903 75.8634 148.903 75.1933V74.4906H149.613C150.29 74.4906 150.824 73.8806 150.683 73.1857C150.58 72.6762 150.097 72.3283 149.572 72.3283V72.3283Z" fill="#D4EBFF"/>
<path d="M155.91 131.791H155.241V131.129C155.241 130.609 154.889 130.132 154.374 130.029C153.672 129.89 153.056 130.418 153.056 131.088V131.791H152.387C151.862 131.791 151.379 132.139 151.276 132.648C151.135 133.343 151.668 133.953 152.346 133.953H153.056V134.615C153.056 135.134 153.407 135.612 153.922 135.714C154.624 135.854 155.241 135.326 155.241 134.656V133.953H155.951C156.628 133.953 157.162 133.343 157.021 132.648C156.918 132.139 156.435 131.791 155.91 131.791V131.791Z" fill="#D4EBFF"/>
<path d="M150.839 122.856C150.52 122.856 150.2 122.808 149.887 122.712C149.074 122.462 148.407 121.913 148.01 121.166C147.614 120.419 147.535 119.564 147.788 118.759C148.041 117.954 148.596 117.294 149.35 116.902C150.105 116.51 150.969 116.432 151.782 116.682C152.596 116.932 153.263 117.481 153.66 118.228C154.056 118.975 154.135 119.829 153.882 120.635C153.629 121.44 153.074 122.1 152.32 122.492C151.855 122.733 151.349 122.856 150.839 122.856V122.856ZM150.836 118.702C150.407 118.702 150.009 118.975 149.875 119.401C149.795 119.655 149.82 119.925 149.945 120.16C150.07 120.395 150.28 120.568 150.536 120.647C151.065 120.81 151.631 120.517 151.796 119.992C151.875 119.739 151.85 119.469 151.725 119.234C151.6 118.999 151.39 118.825 151.134 118.747C151.035 118.716 150.934 118.702 150.836 118.702V118.702Z" fill="#D4EBFF"/>
<path d="M70.8036 108.898C70.485 108.898 70.1651 108.85 69.8522 108.754C69.0384 108.503 68.3717 107.954 67.9753 107.208C67.5787 106.461 67.4999 105.606 67.7529 104.801C68.0059 103.996 68.5608 103.336 69.3153 102.944C70.0696 102.551 70.9334 102.473 71.7474 102.723C73.4273 103.24 74.3693 105.014 73.8469 106.676C73.5938 107.481 73.039 108.141 72.2845 108.533C71.8197 108.775 71.3138 108.898 70.8036 108.898V108.898ZM70.7984 104.743C70.6375 104.743 70.478 104.782 70.3316 104.858C70.0939 104.981 69.9188 105.189 69.8391 105.443C69.6745 105.967 69.9713 106.526 70.5007 106.689C70.7575 106.768 71.0295 106.743 71.2673 106.62C71.505 106.496 71.6801 106.288 71.7598 106.034C71.9244 105.51 71.6276 104.951 71.0979 104.788C70.9996 104.758 70.8989 104.743 70.7984 104.743V104.743Z" fill="#81C2FF"/>
<path d="M78.6141 114.917C78.3009 114.917 77.9828 114.871 77.6685 114.775C75.9884 114.258 75.0466 112.485 75.569 110.822C75.8221 110.017 76.3769 109.357 77.1314 108.965C77.886 108.572 78.7498 108.494 79.5635 108.745C80.3775 108.995 81.044 109.544 81.4406 110.291C81.8372 111.037 81.9161 111.892 81.663 112.697C81.2384 114.049 79.9746 114.917 78.6141 114.917V114.917ZM78.6149 110.764C78.4541 110.764 78.2946 110.803 78.1482 110.879C77.9104 111.002 77.7354 111.21 77.6557 111.464C77.4911 111.988 77.7879 112.547 78.3173 112.71C78.8461 112.872 79.4114 112.579 79.5764 112.055C79.6562 111.801 79.6313 111.532 79.5063 111.297C79.3813 111.062 79.1711 110.888 78.9145 110.809C78.8162 110.779 78.7152 110.764 78.6149 110.764V110.764Z" fill="#81C2FF"/>
<path d="M84.3732 82.2989C84.8164 80.9491 86.7291 80.9491 87.1723 82.2989V82.2989C87.3695 82.8994 87.9354 83.3064 88.5675 83.3064V83.3064C89.9799 83.3064 90.5846 85.1169 89.4378 85.9414V85.9414C88.9227 86.3117 88.7074 86.9738 88.9053 87.5765V87.5765C89.3459 88.9184 87.7863 90.0239 86.6395 89.1994V89.1994C86.1256 88.83 85.4199 88.83 84.906 89.1994V89.1994C83.7592 90.0239 82.1996 88.9184 82.6402 87.5765V87.5765C82.8381 86.9738 82.6228 86.3117 82.1077 85.9414V85.9414C80.9609 85.1169 81.5656 83.3064 82.978 83.3064V83.3064C83.6101 83.3064 84.176 82.8994 84.3732 82.2989V82.2989Z" fill="white"/>
<defs>
<filter id="filter0_d_73_3474" x="0.533203" y="0" width="225" height="225" filterUnits="userSpaceOnUse" color-interpolation-filters="sRGB">
<feFlood flood-opacity="0" result="BackgroundImageFix"/>
<feColorMatrix in="SourceAlpha" type="matrix" values="0 0 0 0 0 0 0 0 0 0 0 0 0 0 0 0 0 0 127 0" result="hardAlpha"/>
<feOffset dy="8"/>
<feGaussianBlur stdDeviation="11.5"/>
<feColorMatrix type="matrix" values="0 0 0 0 0.170833 0 0 0 0 0.5025 0 0 0 0 1 0 0 0 0.2 0"/>
<feBlend mode="normal" in2="BackgroundImageFix" result="effect1_dropShadow_73_3474"/>
<feBlend mode="normal" in="SourceGraphic" in2="effect1_dropShadow_73_3474" result="shape"/>
</filter>
<linearGradient id="paint0_linear_73_3474" x1="108.025" y1="81.6712" x2="119.589" y2="137.507" gradientUnits="userSpaceOnUse">
<stop stop-color="#77C2FE" stop-opacity="0"/>
<stop offset="1" stop-color="#77C2FE"/>
</linearGradient>
</defs>
</svg>
