<svg width="40" height="29" viewBox="0 0 40 29" fill="none" xmlns="http://www.w3.org/2000/svg">
<path d="M0.529013 9.83326C0.529013 11.3761 0.960468 12.8359 1.72944 14.1353C2.80362 15.9506 4.53643 17.4529 6.67177 18.4315C8.38867 19.2183 10.3658 19.6665 12.4701 19.6665C19.0649 19.6665 24.4111 15.264 24.4111 9.83326C24.4111 4.4025 19.0649 0 12.4701 0C5.87521 0 0.529013 4.4025 0.529013 9.83326Z" fill="#B1CEFF"/>
<path d="M6.67177 18.4315C5.44704 18.3862 2.53832 18.4846 0.701239 19.241C0.605558 19.3041 0.356785 19.4207 0.12715 19.3829C-0.102486 19.3451 0.0314674 19.0204 0.12715 18.8628C0.582979 17.4446 1.5416 14.5135 1.72944 14.1353C2.80362 15.9506 4.53643 17.4529 6.67177 18.4315Z" fill="#B1CEFF"/>
<path d="M29.2677 22.7907L29.2678 22.791C29.2687 22.7931 29.2685 22.7929 29.2677 22.7907ZM26.962 22.8905C27.754 22.9715 28.5453 23.1181 29.136 23.3519C29.2179 23.3977 29.3164 23.4418 29.4241 23.4757C29.5662 23.5203 29.7822 23.5653 30.0258 23.5252C30.2777 23.4837 30.5309 23.3308 30.6642 23.0514C30.7724 22.8247 30.7537 22.6106 30.7369 22.505C30.7111 22.3419 30.6494 22.1958 30.5954 22.0921C30.4222 21.5542 30.1663 20.768 29.9333 20.0713C29.8118 19.7078 29.6956 19.366 29.6003 19.0956C29.5735 19.0196 29.5465 18.9438 29.5202 18.8718C30.0517 17.8638 30.35 16.7439 30.35 15.5628C30.35 10.9117 25.8281 7.37598 20.569 7.37598C15.31 7.37598 10.7881 10.9117 10.7881 15.5628C10.7881 20.214 15.31 23.7497 20.569 23.7497C22.2096 23.7497 23.761 23.412 25.1252 22.811C25.5669 22.8019 26.2417 22.8168 26.962 22.8905Z" fill="#B1CEFF" stroke="#F9FBFF" stroke-width="1.5"/>
<circle cx="33" cy="22" r="7" fill="#FFCF27"/>
<path d="M34.3022 26H32.75V20.0166L30.897 20.5913V19.3291L34.1357 18.1689H34.3022V26Z" fill="white"/>
</svg>
