<svg width="20" height="20" viewBox="0 0 20 20" fill="none" xmlns="http://www.w3.org/2000/svg">
<path d="M10 20C8.02219 20 6.08879 19.4135 4.4443 18.3147C2.79981 17.2159 1.51809 15.6541 0.761209 13.8268C0.00433281 11.9996 -0.1937 9.98891 0.192152 8.0491C0.578004 6.10929 1.53041 4.32746 2.92894 2.92894C4.32746 1.53041 6.10929 0.578004 8.0491 0.192152C9.98891 -0.1937 11.9996 0.00433281 13.8268 0.761209C15.6541 1.51809 17.2159 2.79981 18.3147 4.4443C19.4135 6.08879 20 8.02219 20 10C19.997 12.6513 18.9425 15.1931 17.0678 17.0678C15.1931 18.9425 12.6513 19.997 10 20ZM10 1.25C8.26942 1.25 6.57769 1.76318 5.13876 2.72465C3.69983 3.68611 2.57833 5.05267 1.91606 6.65152C1.25379 8.25038 1.08051 10.0097 1.41813 11.707C1.75575 13.4044 2.58911 14.9635 3.81282 16.1872C5.03653 17.4109 6.59563 18.2443 8.29296 18.5819C9.99029 18.9195 11.7496 18.7462 13.3485 18.084C14.9473 17.4217 16.3139 16.3002 17.2754 14.8612C18.2368 13.4223 18.75 11.7306 18.75 10C18.7474 7.68017 17.8246 5.45611 16.1843 3.81574C14.5439 2.17537 12.3198 1.25265 10 1.25Z" fill="#E0E0E0"/>
<path d="M8.02621 7.99057H13.6897V7.63655C13.6897 7.34436 13.4504 7.10551 13.1586 7.10551H10.8211V6.79632C10.8211 6.35639 10.4633 6 10.0248 6H8.66535C8.45293 6 8.25327 6.08307 8.10221 6.23413C7.95115 6.38519 7.86854 6.58342 7.86854 6.79632V7.10597H5.53104C5.23885 7.10551 5 7.34434 5 7.63655V12.3791L6.78524 8.76236C7.00191 8.32192 7.53625 7.99057 8.02621 7.99057ZM8.3996 6.79632C8.3996 6.72599 8.4284 6.65942 8.47796 6.6094C8.52753 6.55841 8.59455 6.53058 8.66489 6.53058H10.0243C10.1712 6.53058 10.2896 6.64953 10.2896 6.79632V7.10597H8.39962V6.79632H8.3996Z" fill="#E0E0E0"/>
<path d="M15.6538 8.52075H8.02571C7.73399 8.52075 7.38893 8.73505 7.26101 8.99656L5.20956 13.1523C5.08023 13.4134 5.2138 13.6277 5.50553 13.6277H13.1336C13.4253 13.6277 13.7709 13.4138 13.8993 13.1523L15.9502 8.99656C16.0791 8.73505 15.9465 8.52075 15.6538 8.52075Z" fill="#E0E0E0"/>
</svg>
